<svg width="254" height="85" viewBox="0 0 254 85" fill="none" xmlns="http://www.w3.org/2000/svg">
<rect x="0.0385742" width="108.075" height="85" fill="#39C8D3"/>
<path d="M89.4029 35V11.6H106.035V16.784H95.5949V20.456H98.4029C100.035 20.456 101.547 20.672 102.939 21.104C104.331 21.512 105.447 22.232 106.287 23.264C107.127 24.272 107.547 25.664 107.547 27.44C107.547 29.288 107.127 30.764 106.287 31.868C105.471 32.972 104.379 33.776 103.011 34.28C101.643 34.76 100.155 35 98.5469 35H89.4029ZM95.5949 30.248H97.9709C99.1709 30.248 100.059 30.032 100.635 29.6C101.211 29.144 101.499 28.448 101.499 27.512C101.499 26.576 101.199 25.928 100.599 25.568C99.9989 25.184 99.1229 24.992 97.9709 24.992H95.5949V30.248ZM97.7549 80.432C96.2189 80.432 94.6469 80.156 93.0389 79.604C91.4549 79.052 90.0029 78.212 88.6829 77.084L92.2109 72.836C93.0989 73.508 94.0469 74.06 95.0549 74.492C96.0869 74.9 97.1309 75.104 98.1869 75.104C99.1229 75.104 99.7829 74.972 100.167 74.708C100.575 74.444 100.779 74.12 100.779 73.736C100.779 73.28 100.647 72.92 100.383 72.656C100.119 72.392 99.7349 72.152 99.2309 71.936C98.7269 71.72 98.1149 71.468 97.3949 71.18L94.4789 69.956C93.5909 69.62 92.7629 69.164 91.9949 68.588C91.2509 67.988 90.6509 67.268 90.1949 66.428C89.7629 65.564 89.5469 64.568 89.5469 63.44C89.5469 62.096 89.9189 60.884 90.6629 59.804C91.4069 58.7 92.4509 57.824 93.7949 57.176C95.1389 56.504 96.6989 56.168 98.4749 56.168C99.8669 56.168 101.259 56.432 102.651 56.96C104.067 57.464 105.339 58.244 106.467 59.3L103.371 63.188C102.531 62.636 101.727 62.216 100.959 61.928C100.191 61.64 99.2429 61.496 98.1149 61.496C97.4429 61.496 96.8909 61.628 96.4589 61.892C96.0269 62.132 95.8109 62.528 95.8109 63.08C95.8109 63.44 95.9549 63.74 96.2429 63.98C96.5309 64.22 96.9509 64.448 97.5029 64.664C98.0549 64.88 98.7149 65.132 99.4829 65.42L102.183 66.536C103.239 66.92 104.127 67.412 104.847 68.012C105.591 68.588 106.155 69.284 106.539 70.1C106.923 70.916 107.115 71.864 107.115 72.944C107.115 74.264 106.755 75.5 106.035 76.652C105.315 77.78 104.259 78.692 102.867 79.388C101.475 80.084 99.7709 80.432 97.7549 80.432Z" fill="#001018"/>
<path d="M115.165 35.432C114.421 35.432 113.785 35.384 113.257 35.288C112.729 35.192 112.285 35.072 111.925 34.928L113.005 29.6C113.221 29.672 113.449 29.744 113.689 29.816C113.953 29.864 114.349 29.888 114.877 29.888C115.285 29.888 115.669 29.828 116.029 29.708C116.389 29.588 116.653 29.396 116.821 29.132L117.109 28.628L109.189 11.6H115.741L117.829 17.036L119.845 23.012H119.989L121.933 17.036L123.805 11.6H129.997L122.941 29.276C122.173 31.172 121.177 32.672 119.953 33.776C118.729 34.88 117.133 35.432 115.165 35.432ZM132.359 35V11.6H137.903V18.368C137.903 19.808 137.807 21.344 137.615 22.976C137.423 24.584 137.255 26.024 137.111 27.296H137.255L139.127 22.04L143.519 11.6H149.783V35H144.239V28.232C144.239 26.792 144.335 25.28 144.527 23.696C144.719 22.088 144.887 20.624 145.031 19.304H144.887L143.015 24.524L138.623 35H132.359ZM141.215 10.016C139.607 10.016 138.311 9.824 137.327 9.44C136.367 9.056 135.659 8.504 135.203 7.784C134.747 7.064 134.495 6.2 134.447 5.192L139.631 4.976C139.679 5.648 139.823 6.152 140.063 6.488C140.327 6.824 140.711 6.992 141.215 6.992C141.719 6.992 142.103 6.824 142.367 6.488C142.631 6.152 142.775 5.648 142.799 4.976L147.983 5.192C147.935 6.2 147.683 7.064 147.227 7.784C146.771 8.504 146.051 9.056 145.067 9.44C144.107 9.824 142.823 10.016 141.215 10.016ZM122.581 80.432C120.613 80.432 119.041 80.096 117.865 79.424C116.689 78.752 115.837 77.816 115.309 76.616C114.781 75.392 114.517 73.976 114.517 72.368V66.824H110.197V62.216L114.805 62L115.597 56.6H120.709V62H127.837V66.824H120.709V72.26C120.709 73.1 120.841 73.772 121.105 74.276C121.369 74.756 121.753 75.104 122.257 75.32C122.785 75.512 123.433 75.608 124.201 75.608C124.825 75.608 125.401 75.56 125.929 75.464C126.481 75.344 126.997 75.2 127.477 75.032L128.557 79.496C127.765 79.712 126.877 79.916 125.893 80.108C124.909 80.324 123.805 80.432 122.581 80.432ZM137.975 80.432C135.959 80.432 134.507 79.772 133.619 78.452C132.731 77.108 132.287 75.32 132.287 73.088V62H138.479V72.296C138.479 73.304 138.611 74.036 138.875 74.492C139.163 74.948 139.715 75.176 140.531 75.176C141.059 75.176 141.527 75.08 141.935 74.888C142.343 74.672 142.775 74.24 143.231 73.592V62H149.423V80H144.383L143.951 77.624H143.807C143.063 78.488 142.223 79.172 141.287 79.676C140.351 80.18 139.247 80.432 137.975 80.432ZM160.893 80.432C158.613 80.432 156.789 79.592 155.421 77.912C154.053 76.208 153.369 73.904 153.369 71C153.369 69.032 153.729 67.352 154.449 65.96C155.193 64.544 156.141 63.464 157.293 62.72C158.445 61.952 159.645 61.568 160.893 61.568C161.853 61.568 162.657 61.724 163.305 62.036C163.977 62.348 164.577 62.792 165.105 63.368H165.249L164.961 60.776V54.944H171.153V80H166.113L165.681 78.344H165.537C164.913 78.944 164.181 79.448 163.341 79.856C162.525 80.24 161.709 80.432 160.893 80.432ZM162.513 75.392C163.017 75.392 163.461 75.308 163.845 75.14C164.253 74.948 164.625 74.6 164.961 74.096V67.472C164.601 67.136 164.217 66.908 163.809 66.788C163.425 66.668 163.017 66.608 162.585 66.608C162.081 66.608 161.601 66.752 161.145 67.04C160.713 67.304 160.365 67.76 160.101 68.408C159.837 69.032 159.705 69.872 159.705 70.928C159.705 72.536 159.945 73.688 160.425 74.384C160.929 75.056 161.625 75.392 162.513 75.392ZM182.947 80V66.824H176.107V62H189.139V80H182.947ZM185.827 59.552C184.675 59.552 183.727 59.228 182.983 58.58C182.239 57.908 181.867 57.032 181.867 55.952C181.867 54.872 182.239 53.996 182.983 53.324C183.727 52.628 184.675 52.28 185.827 52.28C186.979 52.28 187.927 52.628 188.671 53.324C189.415 53.996 189.787 54.872 189.787 55.952C189.787 57.032 189.415 57.908 188.671 58.58C187.927 59.228 186.979 59.552 185.827 59.552ZM206.909 80.432C205.013 80.432 203.297 80.06 201.761 79.316C200.249 78.572 199.049 77.504 198.161 76.112C197.273 74.696 196.829 72.992 196.829 71C196.829 69.032 197.273 67.352 198.161 65.96C199.073 64.544 200.249 63.464 201.689 62.72C203.129 61.952 204.653 61.568 206.261 61.568C208.157 61.568 209.741 61.964 211.013 62.756C212.285 63.524 213.233 64.568 213.857 65.888C214.505 67.208 214.829 68.672 214.829 70.28C214.829 70.808 214.793 71.324 214.721 71.828C214.673 72.308 214.625 72.656 214.577 72.872H201.509V68.84H210.293L209.429 69.92C209.429 68.72 209.189 67.808 208.709 67.184C208.229 66.56 207.485 66.248 206.477 66.248C205.685 66.248 205.013 66.416 204.461 66.752C203.933 67.088 203.525 67.616 203.237 68.336C202.949 69.032 202.805 69.92 202.805 71C202.805 72.128 202.985 73.04 203.345 73.736C203.729 74.432 204.281 74.948 205.001 75.284C205.745 75.596 206.669 75.752 207.773 75.752C208.493 75.752 209.189 75.668 209.861 75.5C210.557 75.308 211.301 75.032 212.093 74.672L214.109 78.344C213.029 79.016 211.841 79.532 210.545 79.892C209.249 80.252 208.037 80.432 206.909 80.432ZM227.055 80.432C225.519 80.432 223.959 80.168 222.375 79.64C220.791 79.088 219.423 78.44 218.271 77.696L220.863 73.88C221.991 74.552 223.155 75.056 224.355 75.392C225.579 75.728 226.767 75.896 227.919 75.896C228.711 75.896 229.275 75.8 229.611 75.608C229.971 75.392 230.151 75.128 230.151 74.816C230.151 74.6 230.079 74.42 229.935 74.276C229.815 74.132 229.599 74.012 229.287 73.916C228.999 73.796 228.603 73.688 228.099 73.592C227.595 73.472 226.959 73.328 226.191 73.16C223.719 72.608 221.967 71.864 220.935 70.928C219.927 69.968 219.423 68.792 219.423 67.4C219.423 65.624 220.191 64.208 221.727 63.152C223.287 62.096 225.375 61.568 227.991 61.568C229.695 61.568 231.207 61.844 232.527 62.396C233.871 62.924 235.023 63.488 235.983 64.088L233.247 67.76C232.311 67.208 231.339 66.8 230.331 66.536C229.323 66.248 228.351 66.104 227.415 66.104C227.031 66.104 226.695 66.14 226.407 66.212C226.143 66.284 225.927 66.404 225.759 66.572C225.615 66.716 225.543 66.896 225.543 67.112C225.543 67.496 225.819 67.76 226.371 67.904C226.923 68.048 227.895 68.288 229.287 68.624C231.087 69.032 232.491 69.5 233.499 70.028C234.531 70.556 235.251 71.18 235.659 71.9C236.067 72.596 236.271 73.448 236.271 74.456C236.271 75.584 235.923 76.604 235.227 77.516C234.531 78.404 233.499 79.112 232.131 79.64C230.763 80.168 229.071 80.432 227.055 80.432Z" fill="#39C8D3"/>
<path fill-rule="evenodd" clip-rule="evenodd" d="M20.3095 68.2629C19.8102 67.7635 19.0005 67.7635 18.5011 68.2629L17.0396 69.7244C15.8744 70.8896 13.9852 70.8896 12.82 69.7244L11.8062 68.7106L13.0117 67.505L14.0256 68.5189C14.525 69.0182 15.3346 69.0182 15.834 68.5189L17.2956 67.0573C18.4608 65.8921 20.3499 65.8921 21.5151 67.0573L22.9767 68.5189C23.476 69.0182 24.2857 69.0182 24.7851 68.5189L26.2466 67.0573C27.4118 65.8921 29.301 65.8921 30.4662 67.0573L31.9277 68.5189C32.4271 69.0182 33.2367 69.0182 33.7361 68.5189L35.1976 67.0573C36.3628 65.8921 38.252 65.8921 39.4172 67.0573L40.8787 68.5189C41.3781 69.0182 42.1878 69.0182 42.6871 68.5189L44.1487 67.0573C45.3139 65.8921 47.203 65.8921 48.3682 67.0573L49.8298 68.5189C50.3292 69.0182 51.1388 69.0182 51.6382 68.5189L53.0997 67.0573C54.2649 65.8921 56.1541 65.8921 57.3193 67.0573L58.7808 68.5189C59.2802 69.0182 60.0898 69.0182 60.5892 68.5189L62.0508 67.0573C63.216 65.8921 65.1051 65.8921 66.2703 67.0573L67.7319 68.5189C68.2312 69.0182 69.0409 69.0182 69.5403 68.5189L71.0018 67.0573C72.167 65.8921 74.0562 65.8921 75.2214 67.0573L76.6829 68.5189C77.1823 69.0182 77.9919 69.0182 78.4913 68.5189L79.3986 67.6115L80.6042 68.8171L79.6969 69.7244C78.5317 70.8896 76.6425 70.8896 75.4773 69.7244L74.0158 68.2629C73.5164 67.7635 72.7068 67.7635 72.2074 68.2629L70.7458 69.7244C69.5806 70.8896 67.6915 70.8896 66.5263 69.7244L65.0647 68.2629C64.5654 67.7635 63.7557 67.7635 63.2563 68.2629L61.7948 69.7244C60.6296 70.8896 58.7404 70.8896 57.5752 69.7244L56.1137 68.2629C55.6143 67.7635 54.8047 67.7635 54.3053 68.2629L52.8438 69.7244C51.6786 70.8896 49.7894 70.8896 48.6242 69.7244L47.1627 68.2629C46.6633 67.7635 45.8536 67.7635 45.3543 68.2629L43.8927 69.7244C42.7275 70.8896 40.8384 70.8896 39.6732 69.7244L38.2116 68.2629C37.7122 67.7635 36.9026 67.7635 36.4032 68.2629L34.9417 69.7244C33.7765 70.8896 31.8873 70.8896 30.7221 69.7244L29.2606 68.2629C28.7612 67.7635 27.9516 67.7635 27.4522 68.2629L25.9906 69.7244C24.8254 70.8896 22.9363 70.8896 21.7711 69.7244L20.3095 68.2629Z" fill="#001018"/>
<path fill-rule="evenodd" clip-rule="evenodd" d="M74.1796 65.3048L56.5039 31.5899L58.3914 30.6004L76.0671 64.3152L74.1796 65.3048Z" fill="#001018"/>
<path fill-rule="evenodd" clip-rule="evenodd" d="M53.0066 48.9397L61.6098 65.304L63.4962 64.3123L54.893 47.948L53.0066 48.9397Z" fill="#001018"/>
<path fill-rule="evenodd" clip-rule="evenodd" d="M73.3245 59.1204L61.6029 65.3008L60.6089 63.4156L72.3305 57.2352L73.3245 59.1204Z" fill="#001018"/>
<path fill-rule="evenodd" clip-rule="evenodd" d="M59.6982 42.6614L51.8955 46.8245L50.8923 44.9442L58.695 40.7811L59.6982 42.6614Z" fill="#001018"/>
<path fill-rule="evenodd" clip-rule="evenodd" d="M51.2717 49.7701L58.1904 63.1745L56.2966 64.152L49.3779 50.7476L51.2717 49.7701Z" fill="#001018"/>
<path fill-rule="evenodd" clip-rule="evenodd" d="M58.1932 65.3008L34.3237 65.3008L34.3237 63.1696L58.1932 63.1696L58.1932 65.3008Z" fill="#001018"/>
<path fill-rule="evenodd" clip-rule="evenodd" d="M34.3238 63.1696L36.4597 59.1203L38.3447 60.1146L36.2088 64.1639L34.3238 63.1696Z" fill="#001018"/>
<path fill-rule="evenodd" clip-rule="evenodd" d="M46.5576 44.2225L39.4336 57.8367L37.5453 56.8486L44.6693 43.2344L46.5576 44.2225Z" fill="#001018"/>
<path fill-rule="evenodd" clip-rule="evenodd" d="M39.4384 55.7104H53.0781V57.8416H39.4384V55.7104Z" fill="#001018"/>
<path fill-rule="evenodd" clip-rule="evenodd" d="M35.8152 31.6277L18.7656 64.2351L16.877 63.2476L33.9266 30.6402L35.8152 31.6277Z" fill="#001018"/>
<path fill-rule="evenodd" clip-rule="evenodd" d="M42.4224 42.7102L30.7008 65.3009L28.8091 64.3193L40.5307 41.7286L42.4224 42.7102Z" fill="#001018"/>
<path fill-rule="evenodd" clip-rule="evenodd" d="M30.7005 65.3008H16.8477V63.1696H30.7005V65.3008Z" fill="#001018"/>
<path fill-rule="evenodd" clip-rule="evenodd" d="M42.4219 42.71H28.7822V40.5788H42.4219V42.71Z" fill="#001018"/>
<path fill-rule="evenodd" clip-rule="evenodd" d="M58.4063 32.6935H33.8975V30.5623H58.4063V32.6935Z" fill="#001018"/>
<path fill-rule="evenodd" clip-rule="evenodd" d="M40.5046 32.4803V30.7754C40.5046 27.5974 43.0809 25.0211 46.2589 25.0211C49.4369 25.0211 52.0131 27.5974 52.0131 30.7754V32.4803H40.5046ZM49.9328 29.0704C49.2892 27.686 47.8861 26.7261 46.2589 26.7261C44.6316 26.7261 43.2285 27.686 42.585 29.0704C42.3441 29.5886 42.2096 30.1663 42.2096 30.7754H50.3082C50.3082 30.1663 50.1737 29.5886 49.9328 29.0704Z" fill="#001018"/>
<path fill-rule="evenodd" clip-rule="evenodd" d="M46.6849 14.0454V23.4227H45.8324V14.0454H46.6849ZM33.7613 20.2781L40.985 24.7781L40.5343 25.5017L33.3105 21.0017L33.7613 20.2781ZM58.9937 21.0017L51.7699 25.5017L51.3192 24.7781L58.5429 20.2781L58.9937 21.0017Z" fill="#001018"/>
</svg>
